<?xml version="1.0" encoding="UTF-8"?><svg version="1.1" width="24px" height="24px" viewBox="0 0 24.0 24.0" xmlns="http://www.w3.org/2000/svg" xmlns:xlink="http://www.w3.org/1999/xlink"><defs><clipPath id="i0"><path d="M1366,0 L1366,2700 L0,2700 L0,0 L1366,0 Z"></path></clipPath><clipPath id="i1"><path d="M8.16245417,9.83149178 C8.20501528,9.84304881 8.28087462,9.86485992 8.38620218,9.89702284 C8.55891329,9.94976208 8.75334679,10.013032 8.96568656,10.0869459 C9.57092504,10.2976248 10.2011279,10.5520938 10.826027,10.8516748 C12.2613844,11.5397953 13.4537584,12.3593557 14.2670651,13.329545 C15.774367,15.1275973 15.8093445,17.2539493 14.0226417,19.5585455 L14.4896166,20.3548656 C14.6424968,20.6155681 14.5433115,20.9575426 14.2680917,21.1187069 C13.992849,21.2798315 13.6457961,21.1991238 13.492916,20.9384213 L13.0141383,20.1219742 C10.1618672,20.4799404 8.33587586,19.4287191 7.49428612,17.310599 C7.01604554,16.106959 6.88285916,14.6349051 7.00175039,13.0114601 C7.05139706,12.3335411 7.14238697,11.6742199 7.25872626,11.0582149 C7.29954994,10.8420576 7.34072439,10.6463617 7.38027971,10.4742699 C7.40441972,10.3692449 7.42298577,10.2942307 7.43401478,10.2523893 C7.51651713,9.93939457 7.85006796,9.74666653 8.16245417,9.83149178 Z M7.5,0 C11.4773184,0 14.800175,1.45412855 14.9938522,3.6870037 L15,3.84615385 L15.0007734,11.7258813 C14.5833363,11.2835352 14.0933449,10.9103999 13.549828,10.6255039 L13.5501931,6.43594445 C12.1782918,7.41946632 9.96613851,8 7.5,8 C5.03446284,8 2.82278702,7.4197494 1.45081068,6.43666386 L1.45010479,8.71539551 C2.03776534,9.50950534 3.55089635,10.2189555 5.49991324,10.5172739 L5.49975031,11.8653559 C3.85883668,11.6381837 2.43656258,11.1331745 1.44965097,10.4240275 L1.44937182,12.7144044 C2.03650642,13.508915 3.55008551,14.2188314 5.49991324,14.5172739 L5.49975031,15.8653559 C3.85883668,15.6381837 2.43656258,15.1331745 1.44965097,14.4240275 L1.45084402,16.1184483 L1.45392017,16.2069032 C1.53781186,17.1702429 3.59525934,18.1825209 6.33549533,18.4129783 C6.72311053,19.0351443 7.23332077,19.5738755 7.83156397,19.9962229 L7.77850788,19.997617 L7.5,20 C3.52268155,20 0.199824998,18.5458715 0.00614784793,16.3129963 L0,16.1538462 L0.000768887021,3.81075595 L0.00845065232,3.65170638 C0.199824998,1.45412855 3.52268155,0 7.5,0 Z M8.40319478,11.0877206 C8.39552005,11.1268413 8.38771033,11.1673837 8.3797938,11.2093009 C8.27078228,11.7865062 8.18539613,12.4052219 8.13898978,13.0388949 C8.03086514,14.5153234 8.150504,15.8376422 8.56023695,16.8688616 C9.17012528,18.4038337 10.3722094,19.1928432 12.3978088,19.0709635 L10.0422669,15.0541192 C9.88938673,14.7934167 9.98857194,14.4514422 10.2637975,14.2902878 C10.5390345,14.1291533 10.8860874,14.209861 11.0389675,14.4705635 L13.4137974,18.5202991 C14.576992,16.8129485 14.4708761,15.3677397 13.3703756,14.0549586 C12.6694023,13.2187712 11.5942393,12.479774 10.2845606,11.8519048 C9.69918841,11.5712732 9.10649432,11.3319498 8.53805067,11.1340789 C8.49145216,11.1178583 8.44647318,11.1024059 8.40319478,11.0877206 Z M7.5,1.53846154 C4.19772078,1.53846154 1.54933528,2.69743212 1.45622298,3.7577995 L1.4516129,3.84615385 L1.4516129,4 C1.4516129,5.14014577 4.11864302,6.4 7.5,6.4 C10.7874304,6.4 13.3996676,5.20916557 13.5422553,4.09525968 L13.5483871,4 L13.549156,3.88155174 L13.5460798,3.79309682 C13.4506647,2.69743212 10.8022792,1.53846154 7.5,1.53846154 Z"></path></clipPath></defs><g transform="translate(-288.0 -1114.0)"><g clip-path="url(#i0)"><g transform="translate(50.0 1076.0)"><g transform="translate(200.0 0.0)"><g transform="translate(38.0 38.0)"><g transform="translate(4.500000000000001 2.0)"><g clip-path="url(#i1)"><polygon points="0,0 15.3813551,0 15.3813551,21.2016668 0,21.2016668 0,0" stroke="none" fill="#5D5D70"></polygon></g></g></g></g></g></g></g></svg>