<?xml version="1.0" encoding="UTF-8"?>
<svg width="45px" height="50px" viewBox="0 0 45 50" version="1.1" xmlns="http://www.w3.org/2000/svg" xmlns:xlink="http://www.w3.org/1999/xlink">
    <title>主导航/首云LOGO</title>
    <g id="KeyPage-关键页面" stroke="none" stroke-width="1" fill="none" fill-rule="evenodd">
        <g id="KeyPage-实例管理" transform="translate(-15.000000, 0.000000)">
            <g id="主导航/首云LOGO" transform="translate(15.000000, 0.000000)">
                <rect id="logo区域" x="0" y="0" width="45" height="50"></rect>
                <path d="M12.0978395,30.3230233 L11.4545936,34 L3.96466817,34 C1.84491884,34 0.168529945,32.3425933 0.0103073473,30.3230233 L0.0103073473,30.3230233 L12.0978395,30.3230233 Z M42.4634533,30.3230233 C42.3707354,30.814808 42.3028225,31.1682328 42.3028225,31.1682328 C42.0162397,32.8062205 40.6042776,34 38.9543796,34 L13.4581445,34 L14.1086151,30.3230233 L42.4634533,30.3230233 Z M42.9840225,27.0758364 C42.9934148,27.2100698 42.9890799,27.3469733 42.9705363,27.4841196 C42.9170729,27.8868199 42.712371,29.0012245 42.5437928,29.8995933 L42.5437928,29.8995933 L38.4247071,29.8995933 C38.5508999,29.7711855 38.6537325,29.6185041 38.7177922,29.4420345 C38.9432052,28.821842 38.687689,28.1489757 38.1414959,27.830505 L38.1414959,27.830505 L36.8436853,27.0758364 Z M4.31391385,27.0756664 L3.98325993,28.9673141 C3.92209015,29.3168551 4.02444115,29.6515891 4.2305881,29.8994234 L4.2305881,29.8994234 L4.88498131e-15,29.8994234 C0.00481651744,29.704263 0.0231192837,29.5066753 0.0580390352,29.3076311 L0.0580390352,29.3076311 L0.448417774,27.0756664 L4.31391385,27.0756664 Z M18.542099,27.0758364 L18.0406996,29.8995933 L14.1833916,29.8995933 L14.6831053,27.0758364 L18.542099,27.0758364 Z M28.5571078,27.0758364 L28.063174,29.8995933 L23.8010377,29.8995933 C24.093882,29.6483607 24.3034005,29.2976061 24.3739624,28.8922357 L24.3739624,28.8922357 L24.6918526,27.0758364 L28.5571078,27.0758364 Z M39.6048743,24.252128 L40.4024896,24.7164834 C40.8027422,24.9490253 41.4982473,25.3247818 42.0976629,25.6444661 C42.4603467,25.8374419 42.7165854,26.1476595 42.8589135,26.5112792 L42.8589135,26.5112792 L35.8735183,26.5112792 L31.991646,24.252128 L39.6048743,24.252128 Z M4.80806446,24.2521523 L4.41262837,26.5110607 L0.546891473,26.5110607 L0.942327555,24.2521523 L4.80806446,24.2521523 Z M19.043643,24.2521523 L18.6426679,26.5110607 L14.7827108,26.5110607 L14.8730205,26.0025272 L15.1824818,24.2521523 L19.043643,24.2521523 Z M29.0514752,24.252128 L28.6560391,26.5112792 L24.790543,26.5112792 L25.1854975,24.252128 L29.0514752,24.252128 Z M35.4763241,21.7108439 C35.5839733,21.8644962 35.7260606,21.9948459 35.8907855,22.0907269 L35.8907855,22.0907269 L38.392003,23.5461766 L31.2912521,23.5461766 C31.1152084,23.2150837 31.046573,22.827433 31.1144859,22.4397824 L31.1144859,22.4397824 L31.2421237,21.7108439 Z M5.25219553,21.7108681 L4.93141547,23.5462009 L1.06543774,23.5462009 L1.38669945,21.7108681 L5.25219553,21.7108681 Z M19.4950711,21.7108681 L19.168752,23.5462009 L15.3071092,23.5462009 L15.6319833,21.7108681 L19.4950711,21.7108681 Z M29.4957748,21.7108439 L29.1749948,23.5461766 L25.3090171,23.5461766 L25.6305196,21.7108439 L29.4957748,21.7108439 Z M36.2124084,19.7343597 C35.6621213,19.8778171 35.2483825,20.3819814 35.2568114,21.0050867 L35.2568114,21.0050867 L31.3655469,21.0050867 L31.58807,19.7343597 Z M29.5503219,19.7343597 C29.6252188,20.1438566 29.6454481,20.5701024 29.6033036,21.0050867 L29.6033036,21.0050867 L25.6089657,21.0050867 C25.4596536,20.3812532 24.9698138,19.8785453 24.3328294,19.7343597 L24.3328294,19.7343597 Z M6.66398904,19.7341897 C6.03784177,19.8742489 5.53403405,20.3621498 5.38062797,21.0049168 L5.38062797,21.0049168 L1.51007455,21.0049168 L1.7256137,19.7761832 L1.7256137,19.7761832 L1.73332013,19.7341897 Z M19.8462915,19.7341897 L19.6206377,21.0049168 L15.7565866,21.0049168 L15.9819996,19.7341897 L19.8462915,19.7341897 Z M44.6849516,17.6165784 L44.4371418,18.8873054 L31.7359853,18.8873054 L31.9110657,17.8882008 C31.927201,17.7952326 31.9512836,17.7051773 31.9777744,17.6165784 L31.9777744,17.6165784 L44.6849516,17.6165784 Z M28.5513521,17.6164085 C28.8685198,17.9943496 29.125481,18.4230228 29.3085086,18.8871355 L29.3085086,18.8871355 L1.97549463,18.8871355 C2.15876312,18.419139 2.41524267,17.9909513 2.73024291,17.6164085 L2.73024291,17.6164085 Z M45,16.0000243 L44.8499655,16.7694999 L32.4491188,16.7694999 C32.8674334,16.2947067 33.4757595,16.0000243 34.1433289,16.0000243 L34.1433289,16.0000243 L45,16.0000243 Z M25.0920089,16 C26.0317114,16 26.8941089,16.2859439 27.6096025,16.7694756 L3.67391909,16.7694756 C4.39832332,16.2818174 5.26577811,16 6.18934533,16 L25.0920089,16 Z M16.5143452,16.7231371 L16.5061571,16.7694999" id="CDS" fill="#F64020"></path>
            </g>
        </g>
    </g>
</svg>